<?xml version="1.0" encoding="UTF-8" ?>
<!DOCTYPE svg PUBLIC "-//W3C//DTD SVG 1.1//EN" "http://www.w3.org/Graphics/SVG/1.1/DTD/svg11.dtd">
<svg width="666pt" height="221pt" viewBox="0 0 666 221" version="1.1" xmlns="http://www.w3.org/2000/svg">
<g id="#19191eff">
<path fill="#19191e" opacity="1.00" d=" M 55.30 18.29 C 65.52 18.19 75.75 18.31 85.97 18.23 C 81.20 35.85 76.19 53.41 71.38 71.02 C 70.58 73.38 71.02 76.28 73.02 77.91 C 76.03 80.49 80.22 80.81 83.99 81.21 C 90.64 81.32 97.54 81.63 103.85 79.18 C 107.59 77.86 110.89 74.85 111.95 70.95 C 116.83 53.39 121.69 35.83 126.59 18.28 C 150.63 18.24 174.67 18.22 198.71 18.29 C 197.20 23.52 195.80 28.79 194.26 34.01 C 180.47 33.99 166.69 33.99 152.90 34.01 C 148.99 48.09 145.12 62.19 141.19 76.26 C 138.56 84.43 131.48 90.29 123.99 93.93 C 111.31 100.07 96.97 101.22 83.09 101.52 C 72.96 101.18 62.57 100.73 52.99 97.05 C 48.09 95.13 43.21 92.14 40.67 87.37 C 38.52 83.61 38.58 78.99 39.64 74.90 C 44.86 56.03 50.10 37.17 55.30 18.29 Z" />
<path fill="#19191e" opacity="1.00" d=" M 204.17 18.26 C 210.46 18.22 216.75 18.30 223.03 18.21 C 222.66 19.64 222.28 21.08 221.90 22.51 C 219.87 22.50 217.84 22.50 215.81 22.51 C 214.63 26.30 213.66 30.16 212.56 33.98 C 210.33 34.00 208.10 34.01 205.87 34.00 C 206.88 30.15 208.03 26.34 209.07 22.50 C 207.04 22.50 205.01 22.51 202.98 22.52 C 203.38 21.10 203.77 19.68 204.17 18.26 Z" />
<path fill="#19191e" opacity="1.00" d=" M 225.91 18.23 C 228.11 18.24 230.32 18.26 232.53 18.27 C 231.98 20.17 231.44 22.08 230.91 23.99 C 232.85 24.01 234.79 24.00 236.73 23.95 C 237.22 22.05 237.74 20.15 238.27 18.26 C 240.51 18.25 242.74 18.24 244.98 18.23 C 243.51 23.48 242.04 28.73 240.56 33.97 C 238.34 34.00 236.11 34.01 233.89 34.00 C 234.40 32.09 234.92 30.19 235.45 28.28 C 233.52 28.25 231.60 28.24 229.69 28.26 C 229.18 30.18 228.65 32.09 228.11 34.00 C 225.88 34.01 223.65 34.00 221.42 33.99 C 222.91 28.74 224.30 23.45 225.91 18.23 Z" />
<path fill="#19191e" opacity="1.00" d=" M 248.72 18.25 C 254.02 18.28 259.33 18.20 264.64 18.29 C 264.37 19.27 263.83 21.23 263.57 22.21 C 260.50 22.32 257.42 22.12 254.36 22.35 C 254.21 22.76 253.89 23.57 253.74 23.98 C 256.58 24.01 259.42 23.99 262.26 24.01 C 261.91 25.34 261.55 26.67 261.19 27.99 C 258.40 28.00 255.61 28.01 252.82 27.99 C 252.61 28.46 252.18 29.41 251.97 29.89 C 255.09 30.05 258.21 30.00 261.33 30.01 C 260.96 31.34 260.59 32.67 260.23 34.00 C 254.94 34.00 249.65 34.01 244.36 33.99 C 245.77 28.73 247.26 23.49 248.72 18.25 Z" />
<path fill="#19191e" opacity="1.00" d=" M 271.63 18.26 C 399.79 18.25 527.96 18.24 656.13 18.26 C 654.80 23.54 653.21 28.74 651.79 34.00 C 523.65 34.02 395.50 33.97 267.36 34.02 C 268.53 28.70 270.25 23.52 271.63 18.26 Z" />
<path fill="#19191e" opacity="1.00" d=" M 165.40 43.28 C 174.19 43.23 182.98 43.24 191.78 43.27 C 187.81 57.51 183.86 71.75 179.92 85.99 C 191.12 86.02 202.31 85.98 213.51 86.01 C 212.11 91.09 210.72 96.18 209.27 101.25 C 189.31 101.24 169.34 101.28 149.38 101.23 C 154.65 81.89 160.11 62.61 165.40 43.28 Z" />
<path fill="#19191e" opacity="1.00" d=" M 214.30 43.29 C 238.26 43.21 262.22 43.26 286.19 43.26 C 284.87 48.27 283.43 53.24 282.09 58.23 C 274.48 58.28 266.88 58.23 259.27 58.26 C 255.31 72.59 251.33 86.93 247.35 101.26 C 238.56 101.23 229.77 101.26 220.99 101.25 C 225.04 86.94 228.92 72.58 232.95 58.27 C 225.36 58.22 217.77 58.28 210.19 58.24 C 211.50 53.24 212.95 48.28 214.30 43.29 Z" />
<path fill="#19191e" opacity="1.00" d=" M 294.10 43.24 C 302.85 43.27 311.60 43.23 320.35 43.26 C 315.04 62.60 309.71 81.94 304.27 101.25 C 295.50 101.25 286.74 101.26 277.99 101.24 C 283.34 81.90 288.65 62.55 294.10 43.24 Z" />
<path fill="#19191e" opacity="1.00" d=" M 333.40 43.28 C 342.90 43.21 352.39 43.28 361.88 43.24 C 365.02 53.15 368.04 63.11 371.34 72.97 C 379.98 63.02 388.75 53.18 397.41 43.25 C 406.84 43.28 416.27 43.21 425.71 43.28 C 420.29 62.59 414.97 81.93 409.61 101.25 C 401.28 101.24 392.95 101.28 384.63 101.23 C 386.86 92.65 389.38 84.15 391.60 75.58 C 386.00 81.72 380.77 88.19 375.10 94.28 C 368.60 94.23 362.10 94.24 355.60 94.27 C 353.35 88.05 351.76 81.61 349.41 75.42 C 347.16 84.06 344.72 92.65 342.34 101.26 C 334.02 101.22 325.70 101.29 317.38 101.22 C 322.65 81.89 328.10 62.61 333.40 43.28 Z" />
<path fill="#19191e" opacity="1.00" d=" M 459.12 43.24 C 469.63 43.27 480.13 43.25 490.64 43.25 C 494.47 62.59 498.49 81.89 502.37 101.23 C 493.90 101.27 485.44 101.25 476.97 101.24 C 476.26 97.74 475.59 94.23 474.86 90.74 C 466.54 90.77 458.22 90.73 449.90 90.75 C 447.20 94.23 444.52 97.73 441.87 101.25 C 432.86 101.25 423.86 101.26 414.86 101.24 C 429.52 81.83 444.33 62.54 459.12 43.24 M 459.75 76.25 C 464.13 76.26 468.51 76.24 472.90 76.27 C 471.94 71.69 471.01 67.11 470.00 62.55 C 466.58 67.12 463.19 71.70 459.75 76.25 Z" />
<path fill="#19191e" opacity="1.00" d=" M 508.38 43.25 C 532.34 43.26 556.30 43.24 580.27 43.26 C 578.92 48.27 577.52 53.26 576.10 58.25 C 568.51 58.27 560.92 58.22 553.33 58.27 C 549.36 72.60 545.43 86.95 541.38 101.26 C 532.63 101.23 523.88 101.28 515.13 101.23 C 518.97 86.86 523.12 72.59 526.97 58.23 C 519.39 58.28 511.82 58.24 504.24 58.25 C 505.58 53.24 506.98 48.25 508.38 43.25 Z" />
<path fill="#19191e" opacity="1.00" d=" M 588.52 43.26 C 608.73 43.24 628.94 43.26 649.15 43.25 C 647.92 48.06 646.46 52.80 645.33 57.63 C 633.87 57.92 622.40 57.65 610.94 57.76 C 610.26 60.00 609.60 62.25 608.96 64.50 C 619.47 64.48 629.98 64.52 640.49 64.49 C 639.15 69.29 637.82 74.09 636.57 78.92 C 626.01 79.11 615.46 78.94 604.90 79.01 C 604.19 81.49 603.50 83.99 602.85 86.49 C 614.24 86.50 625.62 86.51 637.01 86.48 C 635.68 91.42 634.28 96.33 632.90 101.26 C 612.74 101.23 592.58 101.28 572.43 101.23 C 577.80 81.91 583.12 62.58 588.52 43.26 Z" />
<path fill="#19191e" opacity="1.00" d=" M 182.38 115.43 C 191.85 110.77 202.58 109.75 212.99 109.49 C 225.02 109.51 237.06 109.48 249.10 109.51 C 247.64 115.28 245.94 120.99 244.38 126.74 C 232.26 126.77 220.14 126.72 208.03 126.76 C 203.87 126.74 198.99 128.47 197.70 132.84 C 195.57 140.26 193.52 147.70 191.50 155.15 C 190.62 157.16 191.71 159.72 194.00 160.01 C 199.09 161.02 204.31 160.32 209.46 160.21 C 211.30 153.82 213.02 147.40 214.82 141.01 C 224.11 140.99 233.40 140.99 242.70 141.01 C 239.60 152.08 236.74 163.23 233.35 174.21 C 217.71 176.53 201.80 178.47 185.99 176.95 C 178.56 176.06 170.54 174.41 165.04 168.95 C 161.65 165.65 160.72 160.49 161.99 156.04 C 164.34 147.33 166.82 138.65 169.20 129.95 C 170.97 123.34 176.40 118.36 182.38 115.43 Z" />
<path fill="#19191e" opacity="1.00" d=" M 29.79 110.52 C 59.10 110.48 88.40 110.49 117.70 110.52 C 115.75 117.60 113.78 124.69 111.78 131.76 C 92.86 131.74 73.95 131.74 55.03 131.76 C 53.87 135.83 52.74 139.91 51.62 144.00 C 69.05 144.02 86.47 143.97 103.89 144.02 C 101.98 151.18 100.05 158.33 98.14 165.49 C 80.74 165.53 63.33 165.48 45.93 165.51 C 42.51 177.59 39.11 189.66 35.72 201.74 C 25.30 201.73 14.89 201.79 4.47 201.72 C 12.95 171.33 21.35 140.92 29.79 110.52 Z" />
<path fill="#19191e" opacity="1.00" d=" M 130.75 110.53 C 140.59 110.46 150.43 110.53 160.27 110.49 C 154.50 132.56 148.06 154.48 142.04 176.49 C 132.16 176.50 122.27 176.53 112.38 176.47 C 118.46 154.48 124.63 132.51 130.75 110.53 Z" />
<path fill="#19191e" opacity="1.00" d=" M 317.87 110.57 C 327.60 110.40 337.33 110.54 347.07 110.50 C 341.05 132.52 334.85 154.48 328.81 176.49 C 319.01 176.51 309.22 176.51 299.43 176.49 C 301.77 168.26 303.97 159.99 306.31 151.76 C 298.27 151.75 290.23 151.71 282.18 151.78 C 279.89 160.02 277.61 168.26 275.32 176.50 C 265.60 176.50 255.89 176.51 246.18 176.49 C 252.22 154.47 258.35 132.48 264.48 110.48 C 274.26 110.52 284.04 110.48 293.82 110.51 C 291.51 118.66 289.28 126.84 287.00 135.00 C 295.04 135.00 303.07 135.00 311.11 135.00 C 313.40 126.86 315.65 118.72 317.87 110.57 Z" />
<path fill="#19191e" opacity="1.00" d=" M 529.59 110.50 C 552.10 110.49 574.61 110.50 597.12 110.50 C 603.70 110.71 610.52 111.43 616.44 114.56 C 620.43 116.62 623.64 120.46 624.26 125.01 C 625.38 132.05 622.22 138.76 620.63 145.47 C 619.00 152.42 614.45 158.53 608.39 162.24 C 604.12 164.96 599.32 166.68 594.46 167.99 C 602.89 179.30 611.43 190.51 619.94 201.75 C 607.79 201.73 595.65 201.77 583.51 201.73 C 576.39 191.42 569.45 181.00 562.31 170.71 C 556.24 170.79 550.16 170.73 544.09 170.74 C 541.24 181.08 538.32 191.40 535.48 201.74 C 525.07 201.77 514.67 201.73 504.26 201.76 C 512.68 171.33 521.15 140.92 529.59 110.50 M 556.05 128.25 C 554.04 135.23 552.13 142.24 550.19 149.24 C 559.14 149.12 568.11 149.55 577.04 149.00 C 582.21 148.67 588.44 147.02 590.33 141.56 C 591.18 138.31 593.17 134.72 591.66 131.39 C 589.72 128.63 585.99 128.54 582.95 128.28 C 573.98 128.21 565.01 128.27 556.05 128.25 Z" />
<path fill="#19191e" opacity="1.00" d=" M 350.92 127.76 C 352.51 122.00 354.10 116.25 355.72 110.50 C 383.02 110.52 410.32 110.46 437.62 110.53 C 436.01 116.26 434.45 122.01 432.82 127.74 C 424.16 127.77 415.50 127.73 406.84 127.75 C 402.40 144.02 397.81 160.25 393.35 176.51 C 383.36 176.48 373.38 176.54 363.39 176.47 C 367.85 160.23 372.42 144.02 376.86 127.77 C 368.21 127.73 359.57 127.74 350.92 127.76 Z" />
<path fill="#19191e" opacity="1.00" d=" M 446.39 110.58 C 469.45 110.40 492.52 110.53 515.58 110.51 C 513.97 116.18 512.49 121.89 510.83 127.54 C 497.83 127.46 484.84 127.52 471.85 127.51 C 471.12 129.91 470.42 132.32 469.75 134.75 C 481.71 134.77 493.66 134.71 505.62 134.77 C 504.12 140.45 502.54 146.10 500.96 151.75 C 488.97 151.75 476.97 151.74 464.98 151.75 C 464.20 154.31 463.47 156.89 462.81 159.49 C 475.80 159.50 488.79 159.50 501.78 159.49 C 500.18 165.15 498.64 170.82 497.08 176.49 C 474.11 176.51 451.14 176.51 428.17 176.49 C 434.21 154.51 440.43 132.58 446.39 110.58 Z" />
<path fill="#19191e" opacity="1.00" d=" M 53.83 186.01 C 200.71 186.00 347.58 185.99 494.45 186.01 C 492.97 191.25 491.54 196.50 490.11 201.75 C 343.21 201.75 196.32 201.74 49.42 201.75 C 50.92 196.51 52.39 191.26 53.83 186.01 Z" />
</g>
</svg>
